<mxfile host="app.diagrams.net" modified="2022-11-11T18:48:31.610Z" agent="5.0 (Windows NT 10.0; Win64; x64) AppleWebKit/537.36 (KHTML, like Gecko) Chrome/107.0.0.0 Safari/537.36 Edg/107.0.1418.35" etag="i4lHdCNhDMmj_pUxPIhj" version="20.5.3" type="github">
  <diagram id="C9mcbpRlRI_EIQ_CKLBW" name="第 1 页">
    <mxGraphModel dx="1209" dy="634" grid="1" gridSize="10" guides="1" tooltips="1" connect="1" arrows="1" fold="1" page="1" pageScale="1" pageWidth="827" pageHeight="1169" math="0" shadow="0">
      <root>
        <mxCell id="0" />
        <mxCell id="1" parent="0" />
        <mxCell id="bU162W7uv-dCUyKDu3Oe-30" style="edgeStyle=none;rounded=0;orthogonalLoop=1;jettySize=auto;html=1;exitX=1;exitY=0.5;exitDx=0;exitDy=0;entryX=0;entryY=0.5;entryDx=0;entryDy=0;dashed=1;endArrow=open;endFill=0;" parent="1" source="bU162W7uv-dCUyKDu3Oe-2" target="bU162W7uv-dCUyKDu3Oe-29" edge="1">
          <mxGeometry relative="1" as="geometry" />
        </mxCell>
        <mxCell id="bU162W7uv-dCUyKDu3Oe-31" value="《include》" style="edgeLabel;html=1;align=center;verticalAlign=middle;resizable=0;points=[];" parent="bU162W7uv-dCUyKDu3Oe-30" vertex="1" connectable="0">
          <mxGeometry x="0.2629" y="2" relative="1" as="geometry">
            <mxPoint y="1" as="offset" />
          </mxGeometry>
        </mxCell>
        <mxCell id="bU162W7uv-dCUyKDu3Oe-51" style="edgeStyle=none;rounded=0;orthogonalLoop=1;jettySize=auto;html=1;exitX=1;exitY=0.5;exitDx=0;exitDy=0;entryX=0;entryY=0.5;entryDx=0;entryDy=0;dashed=1;endArrow=open;endFill=0;" parent="1" source="bU162W7uv-dCUyKDu3Oe-2" target="bU162W7uv-dCUyKDu3Oe-37" edge="1">
          <mxGeometry relative="1" as="geometry" />
        </mxCell>
        <mxCell id="bU162W7uv-dCUyKDu3Oe-52" value="《include》" style="edgeLabel;html=1;align=center;verticalAlign=middle;resizable=0;points=[];" parent="bU162W7uv-dCUyKDu3Oe-51" vertex="1" connectable="0">
          <mxGeometry x="0.1615" y="1" relative="1" as="geometry">
            <mxPoint as="offset" />
          </mxGeometry>
        </mxCell>
        <mxCell id="bU162W7uv-dCUyKDu3Oe-2" value="评估报告分析" style="ellipse;whiteSpace=wrap;html=1;" parent="1" vertex="1">
          <mxGeometry x="260" y="130" width="140" height="77.5" as="geometry" />
        </mxCell>
        <mxCell id="bU162W7uv-dCUyKDu3Oe-61" style="edgeStyle=none;rounded=0;orthogonalLoop=1;jettySize=auto;html=1;exitX=1;exitY=0.5;exitDx=0;exitDy=0;entryX=0;entryY=0.5;entryDx=0;entryDy=0;dashed=1;endArrow=open;endFill=0;" parent="1" source="bU162W7uv-dCUyKDu3Oe-5" target="bU162W7uv-dCUyKDu3Oe-39" edge="1">
          <mxGeometry relative="1" as="geometry">
            <mxPoint x="420" y="592" as="sourcePoint" />
          </mxGeometry>
        </mxCell>
        <mxCell id="bU162W7uv-dCUyKDu3Oe-69" value="《include》" style="edgeLabel;html=1;align=center;verticalAlign=middle;resizable=0;points=[];" parent="bU162W7uv-dCUyKDu3Oe-61" vertex="1" connectable="0">
          <mxGeometry x="0.29" y="2" relative="1" as="geometry">
            <mxPoint y="-1" as="offset" />
          </mxGeometry>
        </mxCell>
        <mxCell id="bU162W7uv-dCUyKDu3Oe-62" style="edgeStyle=none;rounded=0;orthogonalLoop=1;jettySize=auto;html=1;exitX=1;exitY=0.5;exitDx=0;exitDy=0;entryX=0;entryY=0.5;entryDx=0;entryDy=0;dashed=1;endArrow=open;endFill=0;" parent="1" source="bU162W7uv-dCUyKDu3Oe-5" target="bU162W7uv-dCUyKDu3Oe-54" edge="1">
          <mxGeometry relative="1" as="geometry">
            <mxPoint x="420" y="592" as="sourcePoint" />
          </mxGeometry>
        </mxCell>
        <mxCell id="bU162W7uv-dCUyKDu3Oe-70" value="《include》" style="edgeLabel;html=1;align=center;verticalAlign=middle;resizable=0;points=[];" parent="bU162W7uv-dCUyKDu3Oe-62" vertex="1" connectable="0">
          <mxGeometry x="0.2205" y="-3" relative="1" as="geometry">
            <mxPoint as="offset" />
          </mxGeometry>
        </mxCell>
        <mxCell id="bU162W7uv-dCUyKDu3Oe-5" value="数据统计" style="ellipse;whiteSpace=wrap;html=1;" parent="1" vertex="1">
          <mxGeometry x="280" y="513" width="140" height="78" as="geometry" />
        </mxCell>
        <mxCell id="bU162W7uv-dCUyKDu3Oe-63" value="《include》" style="edgeStyle=none;rounded=0;orthogonalLoop=1;jettySize=auto;html=1;exitX=1;exitY=0.5;exitDx=0;exitDy=0;entryX=0;entryY=0.5;entryDx=0;entryDy=0;dashed=1;endArrow=open;endFill=0;" parent="1" source="bU162W7uv-dCUyKDu3Oe-6" target="bU162W7uv-dCUyKDu3Oe-55" edge="1">
          <mxGeometry relative="1" as="geometry" />
        </mxCell>
        <mxCell id="bU162W7uv-dCUyKDu3Oe-64" style="edgeStyle=none;rounded=0;orthogonalLoop=1;jettySize=auto;html=1;exitX=1;exitY=0.5;exitDx=0;exitDy=0;entryX=0;entryY=0.5;entryDx=0;entryDy=0;dashed=1;endArrow=open;endFill=0;" parent="1" source="bU162W7uv-dCUyKDu3Oe-6" target="bU162W7uv-dCUyKDu3Oe-56" edge="1">
          <mxGeometry relative="1" as="geometry">
            <Array as="points" />
          </mxGeometry>
        </mxCell>
        <mxCell id="bU162W7uv-dCUyKDu3Oe-71" value="《include》" style="edgeLabel;html=1;align=center;verticalAlign=middle;resizable=0;points=[];" parent="bU162W7uv-dCUyKDu3Oe-64" vertex="1" connectable="0">
          <mxGeometry x="0.2465" y="4" relative="1" as="geometry">
            <mxPoint x="-1" as="offset" />
          </mxGeometry>
        </mxCell>
        <mxCell id="bU162W7uv-dCUyKDu3Oe-6" value="用户管理" style="ellipse;whiteSpace=wrap;html=1;" parent="1" vertex="1">
          <mxGeometry x="274" y="692" width="140" height="78" as="geometry" />
        </mxCell>
        <mxCell id="bU162W7uv-dCUyKDu3Oe-57" style="edgeStyle=none;rounded=0;orthogonalLoop=1;jettySize=auto;html=1;entryX=0;entryY=0.5;entryDx=0;entryDy=0;dashed=1;endArrow=open;endFill=0;exitX=1;exitY=0.5;exitDx=0;exitDy=0;" parent="1" source="bU162W7uv-dCUyKDu3Oe-7" target="bU162W7uv-dCUyKDu3Oe-34" edge="1">
          <mxGeometry relative="1" as="geometry">
            <mxPoint x="480" y="330" as="sourcePoint" />
          </mxGeometry>
        </mxCell>
        <mxCell id="bU162W7uv-dCUyKDu3Oe-65" value="《include》" style="edgeLabel;html=1;align=center;verticalAlign=middle;resizable=0;points=[];" parent="bU162W7uv-dCUyKDu3Oe-57" vertex="1" connectable="0">
          <mxGeometry x="0.2743" y="-1" relative="1" as="geometry">
            <mxPoint as="offset" />
          </mxGeometry>
        </mxCell>
        <mxCell id="bU162W7uv-dCUyKDu3Oe-58" style="edgeStyle=none;rounded=0;orthogonalLoop=1;jettySize=auto;html=1;entryX=0;entryY=0.5;entryDx=0;entryDy=0;dashed=1;endArrow=open;endFill=0;exitX=1;exitY=0.5;exitDx=0;exitDy=0;" parent="1" source="bU162W7uv-dCUyKDu3Oe-7" target="bU162W7uv-dCUyKDu3Oe-36" edge="1">
          <mxGeometry relative="1" as="geometry">
            <mxPoint x="470" y="360" as="sourcePoint" />
          </mxGeometry>
        </mxCell>
        <mxCell id="bU162W7uv-dCUyKDu3Oe-66" value="《include》" style="edgeLabel;html=1;align=center;verticalAlign=middle;resizable=0;points=[];" parent="bU162W7uv-dCUyKDu3Oe-58" vertex="1" connectable="0">
          <mxGeometry x="0.473" y="2" relative="1" as="geometry">
            <mxPoint as="offset" />
          </mxGeometry>
        </mxCell>
        <mxCell id="bU162W7uv-dCUyKDu3Oe-59" style="edgeStyle=none;rounded=0;orthogonalLoop=1;jettySize=auto;html=1;exitX=1;exitY=0.5;exitDx=0;exitDy=0;entryX=0;entryY=0.5;entryDx=0;entryDy=0;dashed=1;endArrow=open;endFill=0;" parent="1" source="bU162W7uv-dCUyKDu3Oe-7" target="bU162W7uv-dCUyKDu3Oe-35" edge="1">
          <mxGeometry relative="1" as="geometry" />
        </mxCell>
        <mxCell id="bU162W7uv-dCUyKDu3Oe-67" value="《include》" style="edgeLabel;html=1;align=center;verticalAlign=middle;resizable=0;points=[];" parent="bU162W7uv-dCUyKDu3Oe-59" vertex="1" connectable="0">
          <mxGeometry x="0.4346" y="3" relative="1" as="geometry">
            <mxPoint x="1" as="offset" />
          </mxGeometry>
        </mxCell>
        <mxCell id="bU162W7uv-dCUyKDu3Oe-60" style="edgeStyle=none;rounded=0;orthogonalLoop=1;jettySize=auto;html=1;exitX=1;exitY=0.5;exitDx=0;exitDy=0;entryX=0;entryY=0.5;entryDx=0;entryDy=0;dashed=1;endArrow=open;endFill=0;" parent="1" source="bU162W7uv-dCUyKDu3Oe-7" target="bU162W7uv-dCUyKDu3Oe-33" edge="1">
          <mxGeometry relative="1" as="geometry" />
        </mxCell>
        <mxCell id="bU162W7uv-dCUyKDu3Oe-68" value="《include》" style="edgeLabel;html=1;align=center;verticalAlign=middle;resizable=0;points=[];" parent="bU162W7uv-dCUyKDu3Oe-60" vertex="1" connectable="0">
          <mxGeometry x="0.2775" y="-3" relative="1" as="geometry">
            <mxPoint as="offset" />
          </mxGeometry>
        </mxCell>
        <mxCell id="bU162W7uv-dCUyKDu3Oe-7" value="评估对象管理" style="ellipse;whiteSpace=wrap;html=1;" parent="1" vertex="1">
          <mxGeometry x="274" y="352" width="140" height="80" as="geometry" />
        </mxCell>
        <mxCell id="bU162W7uv-dCUyKDu3Oe-12" value="业务人员" style="shape=umlActor;verticalLabelPosition=bottom;verticalAlign=top;html=1;" parent="1" vertex="1">
          <mxGeometry x="90" y="220" width="40" height="70" as="geometry" />
        </mxCell>
        <mxCell id="bU162W7uv-dCUyKDu3Oe-29" value="上传报告" style="ellipse;whiteSpace=wrap;html=1;" parent="1" vertex="1">
          <mxGeometry x="538" y="70" width="100" height="40" as="geometry" />
        </mxCell>
        <mxCell id="bU162W7uv-dCUyKDu3Oe-32" value="解析报告" style="ellipse;whiteSpace=wrap;html=1;" parent="1" vertex="1">
          <mxGeometry x="538" y="120" width="100" height="40" as="geometry" />
        </mxCell>
        <mxCell id="bU162W7uv-dCUyKDu3Oe-33" value="导出结果" style="ellipse;whiteSpace=wrap;html=1;" parent="1" vertex="1">
          <mxGeometry x="538" y="432" width="100" height="40" as="geometry" />
        </mxCell>
        <mxCell id="bU162W7uv-dCUyKDu3Oe-34" value="&lt;span style=&quot;color: rgb(50, 50, 50); font-family: 微软雅黑; background-color: rgba(255, 255, 255, 0.01);&quot;&gt;评估对象列表&lt;/span&gt;" style="ellipse;whiteSpace=wrap;html=1;" parent="1" vertex="1">
          <mxGeometry x="538" y="280" width="100" height="40" as="geometry" />
        </mxCell>
        <mxCell id="bU162W7uv-dCUyKDu3Oe-35" value="地址可视化" style="ellipse;whiteSpace=wrap;html=1;" parent="1" vertex="1">
          <mxGeometry x="538" y="380" width="100" height="40" as="geometry" />
        </mxCell>
        <mxCell id="bU162W7uv-dCUyKDu3Oe-36" value="&lt;span style=&quot;color: rgb(50, 50, 50); font-family: 微软雅黑; background-color: rgba(255, 255, 255, 0.01);&quot;&gt;管理对象数据&lt;/span&gt;" style="ellipse;whiteSpace=wrap;html=1;" parent="1" vertex="1">
          <mxGeometry x="538" y="330" width="100" height="40" as="geometry" />
        </mxCell>
        <mxCell id="bU162W7uv-dCUyKDu3Oe-37" value="检索报告" style="ellipse;whiteSpace=wrap;html=1;" parent="1" vertex="1">
          <mxGeometry x="538" y="220" width="100" height="40" as="geometry" />
        </mxCell>
        <mxCell id="bU162W7uv-dCUyKDu3Oe-38" value="查阅报告" style="ellipse;whiteSpace=wrap;html=1;" parent="1" vertex="1">
          <mxGeometry x="538" y="170" width="100" height="40" as="geometry" />
        </mxCell>
        <mxCell id="bU162W7uv-dCUyKDu3Oe-39" value="报告数据统计" style="ellipse;whiteSpace=wrap;html=1;" parent="1" vertex="1">
          <mxGeometry x="539" y="483" width="100" height="40" as="geometry" />
        </mxCell>
        <mxCell id="bU162W7uv-dCUyKDu3Oe-40" style="edgeStyle=none;rounded=0;orthogonalLoop=1;jettySize=auto;html=1;exitX=1;exitY=0.5;exitDx=0;exitDy=0;entryX=0;entryY=0.5;entryDx=0;entryDy=0;dashed=1;endArrow=open;endFill=0;" parent="1" source="bU162W7uv-dCUyKDu3Oe-2" target="bU162W7uv-dCUyKDu3Oe-32" edge="1">
          <mxGeometry relative="1" as="geometry">
            <mxPoint x="430" y="115" as="sourcePoint" />
            <mxPoint x="490" y="40" as="targetPoint" />
          </mxGeometry>
        </mxCell>
        <mxCell id="bU162W7uv-dCUyKDu3Oe-41" value="《include》" style="edgeLabel;html=1;align=center;verticalAlign=middle;resizable=0;points=[];" parent="bU162W7uv-dCUyKDu3Oe-40" vertex="1" connectable="0">
          <mxGeometry x="0.2629" y="2" relative="1" as="geometry">
            <mxPoint y="1" as="offset" />
          </mxGeometry>
        </mxCell>
        <mxCell id="bU162W7uv-dCUyKDu3Oe-42" style="edgeStyle=none;rounded=0;orthogonalLoop=1;jettySize=auto;html=1;entryX=0;entryY=0.5;entryDx=0;entryDy=0;dashed=1;endArrow=open;endFill=0;exitX=1;exitY=0.5;exitDx=0;exitDy=0;" parent="1" source="bU162W7uv-dCUyKDu3Oe-2" target="bU162W7uv-dCUyKDu3Oe-38" edge="1">
          <mxGeometry relative="1" as="geometry">
            <mxPoint x="540" y="180" as="sourcePoint" />
            <mxPoint x="500" y="50" as="targetPoint" />
          </mxGeometry>
        </mxCell>
        <mxCell id="bU162W7uv-dCUyKDu3Oe-43" value="《include》" style="edgeLabel;html=1;align=center;verticalAlign=middle;resizable=0;points=[];" parent="bU162W7uv-dCUyKDu3Oe-42" vertex="1" connectable="0">
          <mxGeometry x="0.2629" y="2" relative="1" as="geometry">
            <mxPoint y="1" as="offset" />
          </mxGeometry>
        </mxCell>
        <mxCell id="bU162W7uv-dCUyKDu3Oe-54" value="对象数据统计" style="ellipse;whiteSpace=wrap;html=1;" parent="1" vertex="1">
          <mxGeometry x="539" y="532" width="100" height="40" as="geometry" />
        </mxCell>
        <mxCell id="bU162W7uv-dCUyKDu3Oe-55" value="查询用户" style="ellipse;whiteSpace=wrap;html=1;" parent="1" vertex="1">
          <mxGeometry x="539" y="692" width="100" height="40" as="geometry" />
        </mxCell>
        <mxCell id="bU162W7uv-dCUyKDu3Oe-56" value="重置密码" style="ellipse;whiteSpace=wrap;html=1;" parent="1" vertex="1">
          <mxGeometry x="539" y="747" width="100" height="40" as="geometry" />
        </mxCell>
        <mxCell id="oDJJwRlF4zaVw1Fgqmln-9" value="" style="endArrow=open;endSize=12;html=1;rounded=0;exitX=1;exitY=0.3333333333333333;exitDx=0;exitDy=0;exitPerimeter=0;entryX=0;entryY=0.5;entryDx=0;entryDy=0;" parent="1" source="bU162W7uv-dCUyKDu3Oe-12" target="bU162W7uv-dCUyKDu3Oe-2" edge="1">
          <mxGeometry x="0.138" y="-19" width="160" relative="1" as="geometry">
            <mxPoint x="190" y="594.3333333333333" as="sourcePoint" />
            <mxPoint x="290" y="495" as="targetPoint" />
            <mxPoint as="offset" />
          </mxGeometry>
        </mxCell>
        <mxCell id="At5W7NTc5EkuiogO6B7t-2" value="系统数据统计" style="ellipse;whiteSpace=wrap;html=1;" parent="1" vertex="1">
          <mxGeometry x="539" y="587" width="100" height="40" as="geometry" />
        </mxCell>
        <mxCell id="At5W7NTc5EkuiogO6B7t-3" style="edgeStyle=none;rounded=0;orthogonalLoop=1;jettySize=auto;html=1;exitX=1;exitY=0.5;exitDx=0;exitDy=0;entryX=0;entryY=0.5;entryDx=0;entryDy=0;dashed=1;endArrow=open;endFill=0;" parent="1" source="bU162W7uv-dCUyKDu3Oe-5" target="At5W7NTc5EkuiogO6B7t-2" edge="1">
          <mxGeometry relative="1" as="geometry">
            <mxPoint x="420" y="592" as="sourcePoint" />
            <mxPoint x="549" y="664" as="targetPoint" />
          </mxGeometry>
        </mxCell>
        <mxCell id="At5W7NTc5EkuiogO6B7t-4" value="《include》" style="edgeLabel;html=1;align=center;verticalAlign=middle;resizable=0;points=[];" parent="At5W7NTc5EkuiogO6B7t-3" vertex="1" connectable="0">
          <mxGeometry x="0.2205" y="-3" relative="1" as="geometry">
            <mxPoint as="offset" />
          </mxGeometry>
        </mxCell>
        <mxCell id="At5W7NTc5EkuiogO6B7t-5" value="登录校验" style="ellipse;whiteSpace=wrap;html=1;" parent="1" vertex="1">
          <mxGeometry x="539" y="642" width="100" height="40" as="geometry" />
        </mxCell>
        <mxCell id="At5W7NTc5EkuiogO6B7t-7" style="edgeStyle=none;rounded=0;orthogonalLoop=1;jettySize=auto;html=1;exitX=1;exitY=0.5;exitDx=0;exitDy=0;entryX=0;entryY=0.5;entryDx=0;entryDy=0;dashed=1;endArrow=open;endFill=0;" parent="1" source="bU162W7uv-dCUyKDu3Oe-6" target="At5W7NTc5EkuiogO6B7t-5" edge="1">
          <mxGeometry relative="1" as="geometry">
            <mxPoint x="430" y="568" as="sourcePoint" />
            <mxPoint x="549" y="719" as="targetPoint" />
          </mxGeometry>
        </mxCell>
        <mxCell id="At5W7NTc5EkuiogO6B7t-8" value="《include》" style="edgeLabel;html=1;align=center;verticalAlign=middle;resizable=0;points=[];" parent="At5W7NTc5EkuiogO6B7t-7" vertex="1" connectable="0">
          <mxGeometry x="0.2205" y="-3" relative="1" as="geometry">
            <mxPoint as="offset" />
          </mxGeometry>
        </mxCell>
        <mxCell id="At5W7NTc5EkuiogO6B7t-13" value="管理人员" style="shape=umlActor;verticalLabelPosition=bottom;verticalAlign=top;html=1;" parent="1" vertex="1">
          <mxGeometry x="90" y="370" width="40" height="70" as="geometry" />
        </mxCell>
        <mxCell id="At5W7NTc5EkuiogO6B7t-14" value="管理员用户" style="shape=umlActor;verticalLabelPosition=bottom;verticalAlign=top;html=1;" parent="1" vertex="1">
          <mxGeometry x="90" y="633" width="40" height="70" as="geometry" />
        </mxCell>
        <mxCell id="At5W7NTc5EkuiogO6B7t-19" value="" style="endArrow=open;endSize=12;html=1;rounded=0;exitX=1;exitY=0.3333333333333333;exitDx=0;exitDy=0;exitPerimeter=0;entryX=0;entryY=0.5;entryDx=0;entryDy=0;" parent="1" source="At5W7NTc5EkuiogO6B7t-13" edge="1" target="bU162W7uv-dCUyKDu3Oe-2">
          <mxGeometry x="0.138" y="-19" width="160" relative="1" as="geometry">
            <mxPoint x="140" y="253.33333333333337" as="sourcePoint" />
            <mxPoint x="280" y="190" as="targetPoint" />
            <mxPoint as="offset" />
          </mxGeometry>
        </mxCell>
        <mxCell id="At5W7NTc5EkuiogO6B7t-20" value="" style="endArrow=open;endSize=12;html=1;rounded=0;exitX=1;exitY=0.3333333333333333;exitDx=0;exitDy=0;exitPerimeter=0;entryX=0;entryY=0.5;entryDx=0;entryDy=0;" parent="1" source="At5W7NTc5EkuiogO6B7t-13" target="bU162W7uv-dCUyKDu3Oe-7" edge="1">
          <mxGeometry x="0.138" y="-19" width="160" relative="1" as="geometry">
            <mxPoint x="150" y="263.33333333333337" as="sourcePoint" />
            <mxPoint x="280" y="190" as="targetPoint" />
            <mxPoint as="offset" />
          </mxGeometry>
        </mxCell>
        <mxCell id="At5W7NTc5EkuiogO6B7t-22" value="" style="endArrow=open;endSize=12;html=1;rounded=0;exitX=1;exitY=0.3333333333333333;exitDx=0;exitDy=0;exitPerimeter=0;entryX=0;entryY=0.5;entryDx=0;entryDy=0;" parent="1" source="At5W7NTc5EkuiogO6B7t-14" target="bU162W7uv-dCUyKDu3Oe-6" edge="1">
          <mxGeometry x="0.138" y="-19" width="160" relative="1" as="geometry">
            <mxPoint x="170" y="407.33333333333337" as="sourcePoint" />
            <mxPoint x="320" y="349.75" as="targetPoint" />
            <mxPoint as="offset" />
          </mxGeometry>
        </mxCell>
        <mxCell id="At5W7NTc5EkuiogO6B7t-23" value="" style="endArrow=open;endSize=12;html=1;rounded=0;exitX=1;exitY=0.3333333333333333;exitDx=0;exitDy=0;exitPerimeter=0;entryX=0;entryY=0.5;entryDx=0;entryDy=0;" parent="1" source="At5W7NTc5EkuiogO6B7t-14" target="bU162W7uv-dCUyKDu3Oe-5" edge="1">
          <mxGeometry x="0.138" y="-19" width="160" relative="1" as="geometry">
            <mxPoint x="180" y="417.33333333333337" as="sourcePoint" />
            <mxPoint x="280" y="592" as="targetPoint" />
            <mxPoint as="offset" />
          </mxGeometry>
        </mxCell>
        <mxCell id="mYlt313ILLSGk_e-R6_2-1" value="" style="endArrow=open;endSize=12;html=1;rounded=0;entryX=0;entryY=0.5;entryDx=0;entryDy=0;exitX=1;exitY=0.3333333333333333;exitDx=0;exitDy=0;exitPerimeter=0;" edge="1" parent="1" source="At5W7NTc5EkuiogO6B7t-13" target="bU162W7uv-dCUyKDu3Oe-5">
          <mxGeometry x="0.138" y="-19" width="160" relative="1" as="geometry">
            <mxPoint x="130" y="380" as="sourcePoint" />
            <mxPoint x="284" y="440" as="targetPoint" />
            <mxPoint as="offset" />
          </mxGeometry>
        </mxCell>
        <mxCell id="mYlt313ILLSGk_e-R6_2-2" value="权限管理" style="ellipse;whiteSpace=wrap;html=1;" vertex="1" parent="1">
          <mxGeometry x="539" y="801" width="100" height="40" as="geometry" />
        </mxCell>
        <mxCell id="mYlt313ILLSGk_e-R6_2-3" style="edgeStyle=none;rounded=0;orthogonalLoop=1;jettySize=auto;html=1;exitX=1;exitY=0.5;exitDx=0;exitDy=0;entryX=0;entryY=0.5;entryDx=0;entryDy=0;dashed=1;endArrow=open;endFill=0;" edge="1" parent="1" source="bU162W7uv-dCUyKDu3Oe-6" target="mYlt313ILLSGk_e-R6_2-2">
          <mxGeometry relative="1" as="geometry">
            <Array as="points" />
            <mxPoint x="424" y="722" as="sourcePoint" />
            <mxPoint x="549" y="806" as="targetPoint" />
          </mxGeometry>
        </mxCell>
        <mxCell id="mYlt313ILLSGk_e-R6_2-4" value="《include》" style="edgeLabel;html=1;align=center;verticalAlign=middle;resizable=0;points=[];" vertex="1" connectable="0" parent="mYlt313ILLSGk_e-R6_2-3">
          <mxGeometry x="0.2465" y="4" relative="1" as="geometry">
            <mxPoint x="-1" as="offset" />
          </mxGeometry>
        </mxCell>
        <mxCell id="mYlt313ILLSGk_e-R6_2-6" value="" style="endArrow=open;endSize=12;html=1;rounded=0;exitX=1;exitY=0.3333333333333333;exitDx=0;exitDy=0;exitPerimeter=0;" edge="1" parent="1" source="At5W7NTc5EkuiogO6B7t-14">
          <mxGeometry x="0.138" y="-19" width="160" relative="1" as="geometry">
            <mxPoint x="140" y="666.3333333333333" as="sourcePoint" />
            <mxPoint x="260" y="170" as="targetPoint" />
            <mxPoint as="offset" />
          </mxGeometry>
        </mxCell>
        <mxCell id="mYlt313ILLSGk_e-R6_2-7" value="" style="endArrow=open;endSize=12;html=1;rounded=0;entryX=0;entryY=0.5;entryDx=0;entryDy=0;exitX=1;exitY=0.3333333333333333;exitDx=0;exitDy=0;exitPerimeter=0;" edge="1" parent="1" source="At5W7NTc5EkuiogO6B7t-14" target="bU162W7uv-dCUyKDu3Oe-7">
          <mxGeometry x="0.138" y="-19" width="160" relative="1" as="geometry">
            <mxPoint x="180" y="660" as="sourcePoint" />
            <mxPoint x="270" y="180" as="targetPoint" />
            <mxPoint as="offset" />
          </mxGeometry>
        </mxCell>
      </root>
    </mxGraphModel>
  </diagram>
</mxfile>
